<?xml version="1.0" encoding="UTF-8" standalone="no"?>
<!DOCTYPE svg PUBLIC "-//W3C//DTD SVG 1.1//EN" "http://www.w3.org/Graphics/SVG/1.1/DTD/svg11.dtd">
<svg height="100%" stroke-miterlimit="10"
    style="fill-rule:nonzero;clip-rule:evenodd;stroke-linecap:round;stroke-linejoin:round;"
    version="1.1" viewBox="0 0 28 28" width="100%" xml:space="preserve"
    xmlns="http://www.w3.org/2000/svg" xmlns:xlink="http://www.w3.org/1999/xlink">
<defs/>
<g id="Senza-Titolo">
<path d="M6.4 2C5.07452 2 4 3.07452 4 4.4L4 23.6C4 24.9255 5.07452 26 6.4 26L21.6 26C22.9255 26 24 24.9255 24 23.6L24 11.5784C24 10.8491 23.7103 10.1496 23.1945 9.63388L16.2636 2.70294C15.8135 2.25286 15.2031 2 14.5665 2L6.4 2ZM5.5 4.4C5.5 3.90294 5.90294 3.5 6.4 3.5L14 3.5L14 10C14 11.1046 14.8954 12 16 12L22.5 12L22.5 23.6C22.5 24.0971 22.0971 24.5 21.6 24.5L6.4 24.5C5.90294 24.5 5.5 24.0971 5.5 23.6L5.5 4.4ZM21.9393 10.5L16 10.5C15.7239 10.5 15.5 10.2761 15.5 10L15.5 4.06066L21.9393 10.5Z" fill="#358068" fill-rule="nonzero" opacity="1" stroke="none"/>
<path d="M13.8638 14.0668C13.9495 14.1306 14 14.2311 14 14.3379L14 20.4198C14 20.4318 13.9994 20.4436 13.9982 20.4554C13.9994 20.4809 14 20.5066 14 20.5324C14 21.4032 13.2941 22.1092 12.4232 22.1092C11.5524 22.1092 10.8464 21.4032 10.8464 20.5324C10.8464 19.6616 11.5524 18.9556 12.4232 18.9556C12.7582 18.9556 13.0688 19.0601 13.3242 19.2382L13.3242 16.594L9.4949 17.7428L9.4949 21.3208C9.4949 21.3328 9.49427 21.3447 9.49305 21.3563C9.49428 21.3819 9.4949 21.4076 9.4949 21.4334C9.4949 22.3043 8.78895 23.0102 7.91811 23.0102C7.04728 23.0102 6.34133 22.3043 6.34133 21.4334C6.34133 20.5626 7.04728 19.8566 7.91811 19.8566C8.25312 19.8566 8.56373 19.9611 8.81913 20.1392L8.81913 15.6894C8.81913 15.5402 8.91701 15.4087 9.05993 15.3658L13.565 14.0143C13.6673 13.9836 13.7781 14.003 13.8638 14.0668ZM9.4949 17.0373L13.3242 15.8885L13.3242 14.792L9.4949 15.9408L9.4949 17.0373ZM7.91811 20.5324C7.42049 20.5324 7.01709 20.9358 7.01709 21.4334C7.01709 21.931 7.42049 22.3344 7.91811 22.3344C8.41573 22.3344 8.81913 21.931 8.81913 21.4334C8.81913 20.9358 8.41573 20.5324 7.91811 20.5324ZM11.5222 20.5324C11.5222 21.03 11.9256 21.4334 12.4232 21.4334C12.9208 21.4334 13.3242 21.03 13.3242 20.5324C13.3242 20.0348 12.9208 19.6314 12.4232 19.6314C11.9256 19.6314 11.5222 20.0348 11.5222 20.5324Z" fill="#358068" fill-rule="nonzero" opacity="1" stroke="none"/>
</g>
</svg>